<?xml version="1.0" encoding="UTF-8" standalone="no"?>
<!-- Created with Inkscape (http://www.inkscape.org/) -->

<svg
   xmlns:dc="http://purl.org/dc/elements/1.1/"
   xmlns:cc="http://creativecommons.org/ns#"
   xmlns:rdf="http://www.w3.org/1999/02/22-rdf-syntax-ns#"
   xmlns:svg="http://www.w3.org/2000/svg"
   xmlns="http://www.w3.org/2000/svg"
   xmlns:sodipodi="http://sodipodi.sourceforge.net/DTD/sodipodi-0.dtd"
   xmlns:inkscape="http://www.inkscape.org/namespaces/inkscape"
   width="6000"
   height="3000"
   viewBox="0 0 1587.5 793.75002"
   version="1.1"
   id="svg3820"
   inkscape:version="0.92.0 r15299"
   sodipodi:docname="grid_HQ_pure.svg">
  <defs
     id="defs3814" />
  <sodipodi:namedview
     id="base"
     pagecolor="#ffffff"
     bordercolor="#666666"
     borderopacity="1.0"
     inkscape:pageopacity="0.0"
     inkscape:pageshadow="2"
     inkscape:zoom="0.125"
     inkscape:cx="5262.122"
     inkscape:cy="1776.2809"
     inkscape:document-units="mm"
     inkscape:current-layer="layer1"
     showgrid="false"
     units="px"
     inkscape:window-width="1615"
     inkscape:window-height="1026"
     inkscape:window-x="65"
     inkscape:window-y="24"
     inkscape:window-maximized="1" />
  <metadata
     id="metadata3817">
    <rdf:RDF>
      <cc:Work
         rdf:about="">
        <dc:format>image/svg+xml</dc:format>
        <dc:type
           rdf:resource="http://purl.org/dc/dcmitype/StillImage" />
        <dc:title />
      </cc:Work>
    </rdf:RDF>
  </metadata>
  <g
     inkscape:label="Layer 1"
     inkscape:groupmode="layer"
     id="layer1"
     transform="translate(0,496.75002)">
    <path
       style="fill:#000000;stroke-width:3.17420316"
       d="m 0.15095191,297.08335 1587.37694809,-0.0795 0.3896,-793.63136 c 0,0 -1054.39842,-0.28439 -1587.82801697,-0.1026 m 674.49254697,6.57383 c 28.0882,0.002 56.57895,-0.13628 83.95508,6.2168 8.71563,2.51626 19.92346,5.06688 22.59766,15.20703 4.28785,22.7457 5.05593,45.99728 6.26367,69.07031 3.29351,97.49688 2.18694,195.14826 2.51562,292.71484 H 404.39453 c -0.62218,-112.93839 -3.41039,-226.04033 3.13867,-338.83398 1.01973,-11.70783 -0.12656,-26.86267 10.90821,-34.32227 15.52552,-8.81741 34.12234,-7.57887 51.25748,-8.99846 60.75159,-1.0556 121.52122,-0.37761 182.27954,-0.99855 7.53447,-0.0395 15.06906,-0.0385 22.6036,-0.0557 z m -518.3457,1.14648 c 61.04735,0.52615 122.3273,0.17653 182.84179,8.61524 15.00199,2.41671 31.42592,9.88971 36.52344,25.4043 10.24763,25.81704 10.15322,53.69742 12.35902,81.04995 4.52345,88.91455 4.04823,177.99102 6.03161,266.99301 H 8.6679688 C 8.0602973,-167.65159 6.9419939,-228.35322 7.6246491,-289.0625 c 0.1371181,-55.43925 -1.3916747,-111.12439 3.6526949,-166.34961 1.050166,-9.92998 2.43513,-22.55198 13.080078,-27.12891 19.549341,-5.55334 40.252563,-5.09372 60.388207,-5.62151 23.829721,-0.35384 47.655841,-0.87494 71.490701,-0.84724 z m 1238.29917,0.50745 c 46.8662,0.41936 94.0909,0.68723 140.1484,9.55664 13.9766,2.96795 28.0532,11.53781 32.1511,26.01375 8.1644,22.58216 7.7575,46.98431 10.4158,70.57118 6.0457,86.17024 3.6764,172.83194 4.601,259.2396 0.015,5.3809 0.045,10.76175 0.066,16.14263 -128.2584,-0.21912 -256.5171,-0.22244 -384.7754,-0.0195 1.5372,-98.71357 1.1952,-197.5124 5.0335,-296.15294 3.3194,-19.63904 2.5577,-41.35883 14.236,-58.46229 14.2834,-17.8881 38.7783,-20.01519 59.848,-22.62732 39.1532,-3.61578 78.8544,-3.89786 118.2754,-4.26172 z m -323.6488,1.01404 c 31.346,0.70874 62.9733,-1.50968 93.8399,4.00586 10.7187,2.73242 13.6827,14.62398 15.4831,24.07159 3.4132,21.96309 2.6966,44.33721 3.639,66.48981 2.0476,95.31226 2.2465,190.65033 3.5029,285.97375 H 800.2832 c 1.74599,-95.51091 0.90868,-191.11872 5.48018,-286.54126 1.54877,-24.08757 2.1564,-50.06874 15.32842,-71.14624 11.52455,-14.53394 32.0523,-16.3027 49.22128,-18.37015 54.68592,-5.39028 109.9096,-3.65161 164.88022,-4.42698 11.8978,-0.0224 23.7956,-0.0369 35.6934,-0.0564 z m 320.459,391.419921 c 63.5755,0.09634 127.151,0.19271 190.7266,0.289062 -0.9309,99.2405884 0.9034,198.671627 -5.7832,297.707027 -1.9475,21.57807 -4.1301,44.27859 -16.5371,62.80665 -12.3675,14.2398 -32.5631,15.17756 -49.9,17.77933 -62.2677,6.10719 -125.0669,5.45858 -187.6555,6.70897 -31.9821,0.17 -64.3543,1.15447 -95.8235,-4.07815 -10.5494,-1.85235 -21.243,-8.99177 -22.5546,-20.37695 -6.0133,-26.25716 -4.6395,-53.33505 -5.7476,-80.17292 -1.4402,-93.453257 -0.2919,-186.9177467 -0.2739,-280.37591 64.5163,-0.0957 129.0325,-0.191418 193.5488,-0.287109 z m -1190.64648,0.296875 h 193.08594 c -1.51544,107.338222 -1.07956,214.722944 -4.35738,322.024624 -0.85391,17.46131 -0.4467,36.26037 -9.76958,51.77811 -9.71279,8.98328 -24.14667,7.19609 -36.29597,8.77676 -65.18785,3.14952 -130.51338,2.04527 -195.7704,2.70134 C 111.0358,289.37893 74.288349,290.21027 38.091797,284.97266 27.283959,283.39971 15.091892,277.831 12.705078,266.04688 9.3928165,251.81983 9.7286493,236.52041 8.4667969,221.76953 6.293013,165.21294 8.5387348,108.53176 7.5617747,51.921993 7.6135348,6.6691698 6.9183866,-38.64355 8.1367188,-83.859375 8.4933509,-87.8197 8.5060467,-91.798943 8.5820312,-95.771484 Z m 396.64648,0 h 193.18555 c -1.62061,114.705181 -1.32816,229.467194 -5.2207,344.121094 -1.16134,13.21828 -4.54278,30.00144 -18.71289,34.95703 -16.90217,5.60977 -34.97824,3.48811 -52.48495,4.61789 -79.53856,1.0373 -159.39012,1.89551 -238.60046,-5.15647 -19.34602,-1.84585 -40.89709,-5.71577 -52.93413,-22.72118 -11.67771,-17.88111 -10.76879,-40.25758 -13.21124,-60.65376 -6.95559,-98.14983 -4.40159,-196.7726313 -5.24579,-295.164604 z m 396.54297,0 h 193.60743 c -1.7435,88.4775083 -1.6146,177.049688 -5.5117,265.445314 -3.4549,28.55898 -1.603,58.23014 -12.7324,85.10156 -7.3888,15.1193 -23.9702,23.03644 -39.9112,25.13642 -34.0639,6.29628 -69.0113,6.14556 -103.6413,7.31862 -55.51388,0.85923 -111.17435,0.77485 -166.29911,-6.08199 -17.55784,-2.46489 -37.03541,-10.53414 -43.6875,-28.39258 -7.21573,-18.12219 -8.46222,-38.30812 -10.25511,-57.62624 -3.4634,-58.6256 -2.48539,-117.498488 -3.77262,-176.243819 l -1.41954,-114.657285 z"
       id="path92"
       inkscape:connector-curvature="0"
       sodipodi:nodetypes="cccccccccccccccccccccccccccccccccccccccccccccccccccccccccccccccccccccccccccccccccccccccccccccccccc" />
  </g>
</svg>
